<svg xmlns="http://www.w3.org/2000/svg" width="142" height="32" viewBox="0 0 142 32" fill="none">
  <path d="M68.319 5.77023L66.8138 3.61195C66.8092 3.60538 66.8066 3.59746 66.8066 3.58928C66.8066 3.5811 66.8092 3.57304 66.8138 3.56621L68.2764 1.4707" stroke="white" stroke-width="2"/>
  <path d="M68.2773 1.47228L66.8147 3.56779C66.81 3.57462 66.8075 3.58267 66.8075 3.59085C66.8075 3.59903 66.81 3.60695 66.8147 3.61353L68.3199 5.7718L67.3104 7.21419C67.292 7.24043 67.2735 7.24008 67.2551 7.21313L64.8086 3.70713C64.7852 3.6731 64.7852 3.63906 64.8086 3.60502L67.2594 0.0990244C67.2778 0.0727861 67.2962 0.0727861 67.3147 0.0990244L68.2773 1.47228Z" fill="#CACBCC"/>
  <path d="M142.005 4.62256V23.6172L0.0521217 23.6161C0.0173739 23.6161 0 23.5988 0 23.564V4.68213C0 4.64241 0.0198559 4.62256 0.0595676 4.62256H62.6885C62.7056 4.62256 62.7141 4.63071 62.7141 4.64702V5.59053C62.7141 5.60117 62.7087 5.60649 62.6981 5.60649H0.977547C0.972187 5.60649 0.967046 5.60862 0.963256 5.61241C0.959466 5.6162 0.957337 5.62134 0.957337 5.6267V22.5865C0.957337 22.6219 0.975065 22.6396 1.01052 22.6396H141.022C141.029 22.6396 141.035 22.637 141.04 22.6322C141.045 22.6274 141.048 22.6209 141.048 22.6141V5.64053C141.048 5.61783 141.036 5.60649 141.014 5.60649H74.6318C74.6177 5.60649 74.6106 5.5994 74.6106 5.58521V4.65766C74.6106 4.63426 74.6223 4.62256 74.6457 4.62256H142.005Z" fill="#CACBCC"/>
  <path d="M108.561 18.9253L107.683 16.6107C107.678 16.5963 107.668 16.584 107.655 16.5752C107.642 16.5665 107.627 16.5618 107.612 16.5617H104.641C104.624 16.5618 104.609 16.5666 104.596 16.5755C104.582 16.5844 104.572 16.597 104.566 16.6117C104.424 16.972 104.207 17.5453 103.917 18.3317C103.885 18.4197 103.871 18.492 103.877 18.5487C103.887 18.653 103.848 18.7423 103.923 18.837C104.01 18.9469 104.128 18.9973 104.278 18.9881C104.574 18.9689 104.879 18.9817 105.183 18.9827C105.194 18.9827 105.204 18.9869 105.211 18.9943C105.218 19.0016 105.222 19.0117 105.222 19.0221V19.4827C105.222 19.4897 105.22 19.4965 105.215 19.5015C105.21 19.5065 105.203 19.5093 105.196 19.5093H102.09C102.066 19.5093 102.055 19.4976 102.055 19.4742V19.0253C102.055 18.9976 102.069 18.9835 102.097 18.9827C102.318 18.9796 102.598 19.0072 102.823 18.9593C103.062 18.9072 103.288 18.5573 103.356 18.3743C105.041 13.9152 106.223 10.7812 106.901 8.97215C106.915 8.93456 106.942 8.91577 106.982 8.91577H107.491C107.53 8.91577 107.557 8.93421 107.571 8.97108L111.353 18.9359C111.365 18.9664 111.387 18.9817 111.42 18.9817H112.215C112.26 18.9817 112.282 19.004 112.282 19.0487V19.421C112.282 19.4798 112.253 19.5093 112.195 19.5093H107.414C107.391 19.5093 107.369 19.5002 107.353 19.484C107.338 19.4679 107.329 19.446 107.329 19.4231V19.0519C107.329 19.0051 107.352 18.9817 107.399 18.9817H108.523C108.563 18.9817 108.576 18.9629 108.561 18.9253ZM106.139 16.0437C106.585 16.0473 107.028 16.0504 107.467 16.0533C107.472 16.0535 107.477 16.0524 107.482 16.0501C107.486 16.0478 107.49 16.0444 107.493 16.0401C107.496 16.0359 107.498 16.031 107.499 16.0259C107.499 16.0207 107.499 16.0155 107.497 16.0107L106.176 12.4462C106.175 12.4441 106.174 12.443 106.173 12.443C106.172 12.4423 106.171 12.442 106.169 12.442C106.168 12.442 106.166 12.4423 106.165 12.443C106.165 12.443 106.165 12.4441 106.164 12.4462L104.782 15.9873C104.78 15.992 104.779 15.9971 104.78 16.0022C104.78 16.0072 104.782 16.0121 104.785 16.0163C104.788 16.0205 104.792 16.0239 104.796 16.0263C104.801 16.0287 104.806 16.0299 104.811 16.0299C105.25 16.0355 105.693 16.0402 106.139 16.0437Z" fill="#CACBCC"/>
  <path d="M69.3141 19.5072C69.2431 19.3774 69.2247 19.2037 69.2587 18.9859L70.4267 18.9764C70.465 18.9764 70.4841 18.9572 70.4841 18.9189V9.64762C70.4841 9.60082 70.4607 9.57813 70.4139 9.57955L69.3109 9.61252C69.2988 9.61323 69.2928 9.60756 69.2928 9.5955V9.15193C69.2928 9.12499 69.3059 9.11151 69.3321 9.11151C72.0602 9.10442 74.1128 9.10655 75.49 9.1179C76.0268 9.12215 76.625 9.25582 77.2845 9.51891C77.7376 9.69975 78.0624 9.93518 78.2588 10.2252C78.7556 10.9581 78.7173 11.9484 78.2269 12.6675C78.0283 12.9597 77.711 13.2121 77.2749 13.4249C76.6367 13.7355 75.9577 13.8961 75.2379 13.9067C75.2331 13.9069 75.2285 13.9082 75.2244 13.9106C75.2203 13.9129 75.2168 13.9162 75.2142 13.9201C75.2116 13.9241 75.21 13.9286 75.2095 13.9333C75.209 13.938 75.2096 13.9427 75.2113 13.9471L75.2251 13.9833C75.23 13.9952 75.2379 14.0054 75.2481 14.0129C75.2582 14.0204 75.2701 14.0249 75.2825 14.0259C75.9435 14.079 76.548 14.2929 77.0962 14.6673C77.3993 14.8736 77.6153 15.097 77.794 15.4385C78.0003 15.8335 78.1454 16.2593 78.229 16.716C78.2624 16.8989 78.2794 17.1181 78.2801 17.3734C78.2801 17.3982 78.279 17.6177 78.2769 18.0318C78.2758 18.1967 78.312 18.3371 78.3428 18.4913C78.3939 18.7502 78.5393 18.9026 78.779 18.9487C78.8634 18.9643 78.9974 18.954 79.1811 18.9179C79.4066 18.8739 79.542 18.8487 79.5874 18.8423C79.625 18.8374 79.6473 18.854 79.6544 18.8923C79.6721 18.9859 79.7104 19.0849 79.7693 19.1891C79.7735 19.1968 79.7761 19.2052 79.7769 19.2139C79.7776 19.2227 79.7765 19.2314 79.7735 19.2397C79.7706 19.2479 79.766 19.2555 79.7599 19.2618C79.7539 19.2681 79.7466 19.2731 79.7384 19.2763C79.3626 19.4295 79.0215 19.5462 78.7151 19.6263C78.1741 19.7681 77.6163 19.7575 77.0419 19.5944C76.3314 19.3923 75.869 18.9672 75.6548 18.319C75.4726 17.7659 75.3776 17.178 75.3698 16.5554C75.3641 16.1107 75.3428 15.7732 75.306 15.5427C75.2783 15.3661 75.1932 15.1424 75.0507 14.8715C74.9443 14.668 74.7744 14.5095 74.5411 14.396C74.2412 14.2507 73.9306 14.1758 73.6093 14.1716C73.4363 14.1695 73.2711 14.1673 73.1136 14.1652C73.0803 14.1652 73.0636 14.1819 73.0636 14.2152V18.9232C73.0636 18.9622 73.0831 18.9817 73.1221 18.9817H74.3816C74.3908 18.9817 74.3954 18.9863 74.3954 18.9955V19.4753C74.3954 19.4834 74.392 19.4913 74.3861 19.4971C74.3801 19.5029 74.372 19.5061 74.3635 19.5061L69.3141 19.5072ZM75.8516 11.8963C75.8523 11.7467 75.8559 11.4715 75.8623 11.0709C75.8658 10.8858 75.797 10.5582 75.6559 10.088C75.5751 9.81888 75.3836 9.72634 75.156 9.68166C74.5465 9.56146 73.9114 9.60188 73.1424 9.59657C73.0984 9.59586 73.0764 9.61749 73.0764 9.66145V13.5887C73.0764 13.627 73.0956 13.6458 73.1339 13.6451C73.5742 13.6401 74.026 13.6436 74.489 13.6557C74.767 13.6635 75.0216 13.605 75.2528 13.4802C75.452 13.3731 75.5924 13.2072 75.674 12.9824C75.7903 12.659 75.8495 12.297 75.8516 11.8963Z" fill="#CACBCC"/>
  <path d="M84.2959 18.9808C84.9966 18.9893 85.6731 18.9875 86.3255 18.9755C86.6616 18.9684 87.0371 18.8563 87.452 18.6393C87.7668 18.4741 88.0438 18.2145 88.2827 17.8607C88.6621 17.2955 88.9121 16.7087 89.0327 16.1002C89.0419 16.0534 89.0706 16.03 89.1188 16.03H89.456C89.5085 16.03 89.534 16.0559 89.5326 16.1077L89.4305 19.4839C89.4305 19.487 89.4299 19.49 89.4286 19.4929C89.4274 19.4957 89.4256 19.4983 89.4233 19.5005C89.4211 19.5026 89.4184 19.5044 89.4154 19.5055C89.4124 19.5067 89.4092 19.5073 89.406 19.5073L80.4751 19.4977C80.4672 19.4977 80.4596 19.4946 80.454 19.489C80.4484 19.4834 80.4453 19.4759 80.4453 19.468L80.4464 19.0095C80.4464 18.9911 80.4556 18.9818 80.474 18.9818L81.6207 18.9829C81.6647 18.9829 81.6867 18.9609 81.6867 18.917L81.6962 9.65203C81.6962 9.6382 81.6906 9.62495 81.6807 9.61517C81.6707 9.6054 81.6572 9.5999 81.6431 9.5999L80.6474 9.59884C80.6354 9.59884 80.6293 9.59281 80.6293 9.58076L80.6304 9.13187C80.6304 9.11769 80.6378 9.1106 80.6527 9.1106L89.072 9.11911C89.0884 9.11911 89.1041 9.12549 89.1156 9.13687C89.1272 9.14824 89.1337 9.16366 89.1337 9.17974L89.1316 11.8082C89.1316 11.8387 89.1163 11.8539 89.0858 11.8539L88.6955 11.8528C88.655 11.8528 88.6274 11.8341 88.6125 11.7965C88.3444 11.1008 88.0349 10.5658 87.6839 10.1913C87.4633 9.95518 87.1825 9.78818 86.8414 9.69032C86.6152 9.62579 86.2943 9.59494 85.8787 9.59778C85.6483 9.60061 85.1239 9.60132 84.3055 9.5999C84.2999 9.5999 84.2944 9.601 84.2892 9.60314C84.2841 9.60528 84.2794 9.60841 84.2754 9.61237C84.2715 9.61632 84.2683 9.62101 84.2662 9.62617C84.2641 9.63133 84.263 9.63686 84.263 9.64245L84.2577 13.8101C84.2576 13.8212 84.2616 13.8319 84.2691 13.8404C84.2765 13.8488 84.2868 13.8543 84.2981 13.8558C85.0427 13.9558 85.7277 13.7686 86.1011 13.0867C86.2925 12.7371 86.401 12.373 86.4266 11.9943C86.428 11.9695 86.4411 11.9574 86.4659 11.9582L86.9233 11.973C86.9319 11.9733 86.94 11.9768 86.9459 11.9828C86.9519 11.9887 86.9552 11.9967 86.9552 12.005L86.9499 16.3513C86.9499 16.3896 86.9308 16.4087 86.8925 16.4087L86.4883 16.4077C86.4485 16.4077 86.4283 16.3878 86.4276 16.3481C86.3978 15.646 86.117 14.8195 85.4256 14.5408C85.0895 14.4047 84.725 14.3586 84.3321 14.4026C84.291 14.4075 84.2704 14.4306 84.2704 14.4717L84.2651 18.9499C84.2651 18.9581 84.2684 18.966 84.2741 18.9717C84.2799 18.9775 84.2878 18.9808 84.2959 18.9808Z" fill="#CACBCC"/>
  <path d="M92.1193 14.2992C92.1221 11.3861 92.1221 9.84194 92.1193 9.66678C92.119 9.65004 92.1122 9.63408 92.1005 9.62234C92.0888 9.6106 92.073 9.60402 92.0565 9.60402L90.93 9.60296C90.8917 9.60225 90.8733 9.5831 90.8747 9.54552L90.8875 9.15194C90.8889 9.11578 90.9077 9.09769 90.9438 9.09769C93.1564 9.09202 94.8941 9.09521 96.1571 9.10727C96.6968 9.11223 97.2095 9.16364 97.6952 9.26151C100.095 9.74656 101.475 11.9431 101.472 14.3067C101.47 16.6713 100.088 18.8647 97.6867 19.3466C97.201 19.4437 96.6883 19.4944 96.1486 19.4987C94.8856 19.5086 93.1479 19.509 90.9353 19.4997C90.8992 19.4997 90.8804 19.4817 90.879 19.4455L90.8673 19.0509C90.8658 19.0133 90.8843 18.9945 90.9226 18.9945H92.049C92.0653 18.9945 92.081 18.988 92.0927 18.9765C92.1044 18.965 92.1113 18.9493 92.1118 18.9328C92.1146 18.7576 92.1171 17.2131 92.1193 14.2992ZM94.6902 14.2971C94.6902 15.8501 94.692 17.4 94.6956 18.9466C94.6954 18.9525 94.6965 18.9583 94.6986 18.9638C94.7008 18.9693 94.704 18.9743 94.7082 18.9785C94.7123 18.9828 94.7173 18.9862 94.7228 18.9885C94.7283 18.9909 94.7342 18.9922 94.7402 18.9923C95.4054 18.9938 95.9749 18.9863 96.4486 18.97C96.8797 18.9551 97.2095 18.8899 97.4378 18.7743C97.6761 18.6537 97.8527 18.5037 97.9675 18.3243C98.2555 17.8783 98.4228 17.3709 98.4696 16.8022C98.5434 15.9065 98.571 15.0786 98.5526 14.3184C98.5526 14.3127 98.5526 14.3053 98.5526 14.2961C98.5526 14.2875 98.5526 14.2805 98.5526 14.2748C98.571 13.5146 98.543 12.6867 98.4686 11.791C98.421 11.2223 98.2533 10.7149 97.9654 10.2688C97.8505 10.0894 97.6736 9.9398 97.4346 9.81995C97.207 9.70366 96.8772 9.63841 96.4454 9.62423C95.9724 9.60792 95.4033 9.60083 94.7381 9.60296C94.732 9.60296 94.726 9.60415 94.7204 9.60646C94.7147 9.60877 94.7096 9.61216 94.7054 9.61642C94.7011 9.62068 94.6978 9.62573 94.6955 9.63127C94.6933 9.63682 94.6922 9.64274 94.6924 9.6487C94.6902 11.1953 94.6895 12.7448 94.6902 14.2971Z" fill="#CACBCC"/>
  <path d="M117.428 15.9418C117.43 15.9476 117.434 15.9526 117.439 15.9562C117.444 15.9597 117.45 15.9615 117.456 15.9614C117.462 15.9613 117.468 15.9592 117.473 15.9555C117.478 15.9518 117.482 15.9466 117.484 15.9407C118.244 13.7431 118.887 11.8855 119.415 10.3679C119.457 10.2452 119.486 10.1115 119.5 9.96688C119.507 9.89796 119.488 9.82888 119.447 9.77292C119.406 9.71695 119.346 9.67807 119.279 9.66373C119.151 9.63607 119.041 9.59778 118.94 9.59778C118.648 9.59636 118.367 9.59671 118.097 9.59884C118.08 9.59884 118.072 9.59068 118.072 9.57437V9.13187C118.072 9.11769 118.08 9.1106 118.095 9.1106H121.23C121.294 9.1106 121.325 9.14215 121.325 9.20527V9.51268C121.325 9.57225 121.295 9.60168 121.236 9.60097C120.817 9.59565 120.516 9.56799 120.215 9.89136C120.164 9.94525 120.091 10.0764 119.997 10.2849C119.944 10.4005 119.889 10.5392 119.833 10.7008C118.758 13.7743 117.706 16.7771 116.678 19.7094C116.667 19.7392 116.646 19.7541 116.614 19.7541H116.241C116.213 19.7541 116.194 19.741 116.183 19.7147L112.122 9.64139C112.117 9.62844 112.107 9.61738 112.096 9.60961C112.084 9.60184 112.07 9.59772 112.056 9.59778H111.313C111.304 9.59778 111.295 9.59591 111.286 9.59227C111.278 9.58864 111.27 9.58331 111.263 9.57659C111.256 9.56987 111.251 9.5619 111.248 9.55312C111.244 9.54435 111.242 9.53494 111.242 9.52544V9.18293C111.242 9.16374 111.25 9.14535 111.264 9.13178C111.277 9.11822 111.296 9.1106 111.316 9.1106H116.027C116.042 9.1106 116.049 9.11804 116.049 9.13293V9.56374C116.049 9.58501 116.038 9.59565 116.016 9.59565H114.952C114.896 9.59565 114.879 9.62153 114.9 9.6733L117.428 15.9418Z" fill="#CACBCC"/>
  <path d="M125.753 14.3005C125.753 17.2328 125.754 18.7777 125.756 18.9351C125.756 18.9431 125.757 18.9511 125.76 18.9585C125.764 18.966 125.768 18.9727 125.774 18.9783C125.78 18.984 125.786 18.9884 125.794 18.9914C125.801 18.9944 125.809 18.9959 125.817 18.9957H126.967C126.995 18.9957 127.009 19.0099 127.009 19.0383V19.4595C127.009 19.4857 126.996 19.4989 126.971 19.4989C126.132 19.4981 125.286 19.4978 124.434 19.4978C123.582 19.4978 122.737 19.4981 121.898 19.4989C121.872 19.4989 121.859 19.4857 121.859 19.4595V19.0383C121.859 19.0099 121.873 18.9957 121.901 18.9957H123.051C123.059 18.9959 123.067 18.9944 123.074 18.9914C123.082 18.9884 123.089 18.984 123.094 18.9783C123.1 18.9727 123.105 18.966 123.108 18.9585C123.111 18.9511 123.112 18.9431 123.112 18.9351C123.114 18.7777 123.115 17.2328 123.115 14.3005C123.115 11.3682 123.113 9.82298 123.111 9.66484C123.111 9.64895 123.105 9.6338 123.093 9.62265C123.082 9.61151 123.067 9.60527 123.051 9.60527H121.901C121.873 9.60527 121.859 9.59109 121.859 9.56272V9.14043C121.859 9.11419 121.872 9.10143 121.898 9.10214C122.737 9.10214 123.582 9.10214 124.434 9.10214C125.285 9.10214 126.131 9.10178 126.969 9.10107C126.995 9.10107 127.008 9.11419 127.008 9.14043V9.56272C127.008 9.59109 126.994 9.60527 126.966 9.60527H125.816C125.8 9.60527 125.785 9.61151 125.774 9.62265C125.763 9.6338 125.756 9.64895 125.756 9.66484C125.754 9.82298 125.753 11.3682 125.753 14.3005Z" fill="#CACBCC"/>
  <path d="M138.627 14.3114C138.626 16.6739 137.244 18.8662 134.845 19.347C134.359 19.4442 133.846 19.4949 133.308 19.4991C132.045 19.5091 130.309 19.5094 128.097 19.5002C128.061 19.5002 128.042 19.4821 128.041 19.446L128.029 19.0524C128.028 19.0148 128.046 18.996 128.085 18.996H129.21C129.227 18.996 129.242 18.9894 129.254 18.9777C129.266 18.966 129.273 18.95 129.273 18.9333C129.276 18.7581 129.278 17.215 129.28 14.304C129.282 11.3922 129.282 9.8488 129.28 9.67364C129.28 9.6569 129.273 9.64094 129.262 9.6292C129.25 9.61746 129.234 9.61088 129.218 9.61088L128.092 9.60982C128.054 9.60982 128.035 9.59103 128.037 9.55344L128.05 9.15987C128.051 9.1237 128.07 9.10562 128.106 9.10562C130.317 9.09995 132.054 9.10278 133.316 9.11413C133.855 9.1198 134.367 9.17157 134.852 9.26943C137.252 9.75342 138.629 11.9479 138.627 14.3114ZM131.834 14.2976C131.835 15.8513 131.837 17.4026 131.841 18.9513C131.841 18.9635 131.845 18.9751 131.854 18.9837C131.863 18.9923 131.874 18.9971 131.886 18.9971C132.552 18.9985 133.122 18.991 133.596 18.9747C134.028 18.9598 134.358 18.8943 134.586 18.778C134.825 18.6574 135.002 18.5074 135.117 18.328C135.405 17.8812 135.572 17.3731 135.619 16.8037C135.693 15.9066 135.72 15.0777 135.702 14.3167C135.701 14.3111 135.701 14.304 135.701 14.2955C135.701 14.2863 135.701 14.2788 135.702 14.2731C135.72 13.5122 135.691 12.6832 135.617 11.7862C135.569 11.2174 135.401 10.7097 135.113 10.2629C134.998 10.0835 134.821 9.93354 134.582 9.81299C134.353 9.6974 134.022 9.63216 133.59 9.61727C133.117 9.60166 132.547 9.59493 131.881 9.59705C131.869 9.59733 131.858 9.60227 131.849 9.61082C131.841 9.61937 131.836 9.63085 131.836 9.64279C131.834 11.1916 131.834 12.7432 131.834 14.2976Z" fill="#CACBCC"/>
  <path d="M68.3209 5.77106L66.8158 3.61279C66.8111 3.60621 66.8086 3.59829 66.8086 3.59011C66.8086 3.58193 66.8111 3.57387 66.8158 3.56705L68.2784 1.47153L69.2911 0.0185029C69.295 0.0127989 69.3002 0.00813291 69.3063 0.00490891C69.3124 0.00168491 69.3192 0 69.3261 0C69.3331 0 69.3399 0.00168491 69.346 0.00490891C69.3521 0.00813291 69.3573 0.0127989 69.3613 0.0185029L71.8206 3.54364C71.8432 3.57556 71.8432 3.60747 71.8206 3.63938L69.3602 7.16026C69.3559 7.16609 69.3502 7.17083 69.3438 7.1741C69.3373 7.17737 69.3302 7.17907 69.3231 7.17907C69.3159 7.17907 69.3089 7.17737 69.3025 7.1741C69.2962 7.17083 69.2908 7.16609 69.2868 7.16026L68.3209 5.77106Z" fill="white"/>
  <path d="M34.455 19.0168C33.7863 19.5218 33.0534 19.7877 32.2563 19.8146C31.0997 19.8529 30.0902 19.5299 29.2279 18.8456C28.7251 18.4456 28.2802 17.9507 27.893 17.3606C27.4753 16.7245 27.2079 16.0455 27.0909 15.3236C26.9796 14.6393 26.9856 13.9745 27.109 13.3292C27.231 12.6881 27.4689 12.0804 27.8228 11.506C28.205 10.8855 28.6776 10.3543 29.2407 9.91254C30.0264 9.297 30.9249 8.97328 31.9361 8.94137C32.8126 8.91371 33.6221 9.15198 34.3646 9.65618C34.3915 9.67462 34.4164 9.67249 34.4391 9.6498L34.905 9.18283C34.9276 9.16094 34.9572 9.14841 34.9879 9.14773L35.3985 9.13496C35.434 9.13354 35.4524 9.15092 35.4538 9.18708L35.5379 11.9666C35.5386 11.9992 35.5226 12.0158 35.49 12.0166L35.0624 12.0304C35.0359 12.031 35.0099 12.0231 34.9882 12.0077C34.9665 11.9924 34.9504 11.9705 34.9422 11.9453C34.7259 11.2666 34.3816 10.6766 33.9093 10.1753C33.5257 9.76893 33.0697 9.53527 32.5414 9.47429C32.3201 9.44876 32.1631 9.4328 32.0702 9.42642C31.5372 9.38813 31.0543 9.53492 30.6863 9.91254C30.4799 10.1239 30.3395 10.4274 30.265 10.8231C30.1927 11.206 30.1402 11.5907 30.1076 11.9772C30.0332 12.8658 30.019 14.2479 30.0651 16.1236C30.0807 16.7533 30.1037 17.1958 30.1342 17.4511C30.2002 17.9971 30.3399 18.4116 30.5533 18.6945C30.9036 19.1597 31.4373 19.3682 32.1542 19.32C32.8158 19.2753 33.3817 19.0434 33.8519 18.6243C34.4979 18.0478 34.9003 17.3468 35.0592 16.5214C35.0646 16.4941 35.0794 16.4695 35.1009 16.4518C35.1224 16.4342 35.1494 16.4245 35.1773 16.4246H35.6219C35.6602 16.4246 35.6793 16.4437 35.6793 16.482V19.4913C35.6793 19.5267 35.6613 19.5452 35.6251 19.5466L35.206 19.5593C35.1443 19.5608 35.0975 19.5455 35.0656 19.5136L34.5773 19.0254C34.5614 19.0095 34.5402 18.9998 34.5178 18.9983C34.4953 18.9967 34.473 19.0033 34.455 19.0168Z" fill="white"/>
  <path d="M19.7943 19.1004C19.7638 19.0777 19.734 19.0788 19.705 19.1036L19.0561 19.6504C19.0375 19.6662 19.0139 19.6752 18.9891 19.6759L18.5455 19.6886C18.5353 19.6889 18.5251 19.6872 18.5155 19.6834C18.506 19.6797 18.4973 19.6741 18.49 19.667C18.4826 19.6598 18.4768 19.6513 18.4728 19.6419C18.4688 19.6324 18.4668 19.6223 18.4668 19.6121V16.6592C18.4668 16.6529 18.468 16.6467 18.4704 16.6409C18.4728 16.6351 18.4764 16.6298 18.4808 16.6253C18.4853 16.6209 18.4905 16.6174 18.4963 16.615C18.5022 16.6126 18.5084 16.6113 18.5147 16.6113H19.0146C19.0465 16.6113 19.0664 16.6269 19.0742 16.6581C19.1961 17.1276 19.4082 17.5853 19.7103 18.0314C20.079 18.576 20.5627 18.9518 21.1612 19.1589C21.8412 19.3951 22.5727 19.3522 23.3556 19.0302C23.4287 19.0004 23.562 18.91 23.7556 18.759C24.2045 18.409 24.4215 17.9218 24.4215 17.3474C24.4222 16.7978 24.1963 16.3833 23.7439 16.1039C23.6077 16.0195 23.3407 15.9029 22.9429 15.754C22.7075 15.666 22.4266 15.5877 22.1004 15.5189C21.5374 15.3998 21.1282 15.3001 20.8729 15.22C20.3907 15.0697 19.9315 14.8222 19.4954 14.4775C19.2082 14.252 18.9958 14.0067 18.8582 13.7414C18.7029 13.4429 18.5991 13.1273 18.5466 12.7947C18.5189 12.6238 18.5097 12.3774 18.5189 12.0554C18.5267 11.7796 18.5572 11.5349 18.6104 11.3215C18.8302 10.4372 19.3185 9.78159 20.0751 9.35468C20.607 9.05472 21.2126 8.92069 21.8919 8.9526C22.5465 8.98309 23.1574 9.1891 23.7247 9.57062C23.7522 9.58903 23.7851 9.59758 23.818 9.59488C23.8509 9.59217 23.8817 9.57836 23.9056 9.55573C24.0502 9.41744 24.3119 9.13981 24.5193 9.16002C24.6065 9.16853 24.6966 9.17031 24.7895 9.16534C24.8235 9.16322 24.8409 9.17917 24.8416 9.21321L24.9214 11.8608C24.9217 11.8672 24.9207 11.8736 24.9184 11.8797C24.9162 11.8857 24.9127 11.8913 24.9083 11.896C24.9038 11.9007 24.8985 11.9046 24.8925 11.9073C24.8865 11.91 24.8801 11.9116 24.8735 11.9118L24.4449 11.9246C24.4087 11.9253 24.3864 11.9079 24.3778 11.8725C24.2871 11.4704 24.1265 11.0843 23.896 10.7141C23.3606 9.85037 22.5851 9.42879 21.5696 9.44935C20.8878 9.46318 20.0336 9.78761 19.7815 10.4822C19.595 10.9956 19.7039 11.4115 20.1081 11.73C20.4074 11.9661 20.8045 12.1533 21.2995 12.2916C21.4271 12.327 21.9054 12.4384 22.7344 12.6256C23.2344 12.7384 23.7836 13.0053 24.3821 13.4266C24.7757 13.7031 25.0544 14.013 25.2182 14.3563C25.4139 14.7669 25.5348 15.1693 25.5809 15.5636C25.6589 16.2358 25.5837 16.8964 25.3554 17.5453C24.9831 18.6026 24.0502 19.4855 22.9418 19.711C22.4851 19.8039 21.9926 19.8184 21.4643 19.7546C20.8382 19.6787 20.2815 19.4607 19.7943 19.1004Z" fill="white"/>
  <path d="M6.61708 13.9046C7.31275 13.9801 7.99033 13.8248 8.35518 13.1781C8.56296 12.8093 8.68245 12.4487 8.71365 12.0963C8.71791 12.0452 8.74556 12.019 8.79662 12.0176L9.15084 12.0069C9.16284 12.0065 9.1748 12.0085 9.18601 12.0128C9.19723 12.0171 9.20746 12.0236 9.21609 12.032C9.22473 12.0403 9.2316 12.0503 9.23629 12.0613C9.24098 12.0724 9.24339 12.0843 9.24338 12.0963V16.3618C9.24338 16.4213 9.2136 16.4522 9.15403 16.4543L8.80301 16.465C8.79147 16.4653 8.78 16.4632 8.76928 16.4589C8.75857 16.4546 8.74884 16.4482 8.74068 16.4401C8.73252 16.4319 8.72611 16.4222 8.72183 16.4115C8.71755 16.4007 8.71549 16.3893 8.71578 16.3777C8.71933 16.2189 8.67288 15.9693 8.57643 15.6289C8.41333 15.0538 8.05912 14.6847 7.51379 14.5216C7.24006 14.44 6.94222 14.4141 6.62027 14.4439C6.60372 14.4452 6.58828 14.4528 6.57704 14.465C6.5658 14.4772 6.55958 14.4932 6.55964 14.5099V18.9977C6.55964 19.0072 6.56345 19.0164 6.57023 19.0232C6.57701 19.03 6.58621 19.0338 6.5958 19.0338H8.03288C8.04493 19.0338 8.05096 19.0398 8.05096 19.0519V19.5242C8.05096 19.537 8.04493 19.5433 8.03288 19.5433H2.76325C2.75049 19.5433 2.7441 19.537 2.7441 19.5242V19.054C2.7441 19.0398 2.7512 19.0328 2.76538 19.0328H3.93546C3.94534 19.0328 3.95481 19.0288 3.96179 19.0219C3.96877 19.0149 3.97269 19.0054 3.97269 18.9955V9.68699C3.97269 9.6774 3.96888 9.6682 3.9621 9.66142C3.95532 9.65463 3.94612 9.65082 3.93653 9.65082H2.74091C2.72744 9.65082 2.7207 9.64409 2.7207 9.63061V9.18279C2.7207 9.17144 2.72638 9.16577 2.73772 9.16577H11.3336C11.3662 9.16577 11.3829 9.18173 11.3836 9.21364L11.4719 12.1261C11.4726 12.163 11.4548 12.1814 11.4187 12.1814H11.0017C10.9677 12.1814 10.946 12.1647 10.9368 12.1314C10.7297 11.3868 10.4383 10.7961 10.0624 10.3593C9.85892 10.1238 9.54654 9.92881 9.12531 9.77421C8.86789 9.6799 8.51119 9.63735 8.05522 9.64657C8.05238 9.64657 7.5769 9.64834 6.62878 9.65189C6.58268 9.65189 6.55964 9.67493 6.55964 9.72103V13.8408C6.55964 13.8791 6.57878 13.9004 6.61708 13.9046Z" fill="white"/>
  <path d="M14.6805 9.15911C15.5315 9.1584 16.3761 9.15805 17.2143 9.15805C17.2398 9.15805 17.2526 9.17116 17.2526 9.1974V9.61863C17.2526 9.647 17.2388 9.66118 17.2111 9.66118H16.0623C16.0464 9.66118 16.0311 9.66742 16.0198 9.67856C16.0085 9.6897 16.0019 9.70485 16.0017 9.72075C15.9995 9.87818 15.9981 11.4216 15.9974 14.3511C15.9974 17.2805 15.9985 18.824 16.0006 18.9814C16.0009 18.9973 16.0074 19.0125 16.0187 19.0236C16.0301 19.0348 16.0453 19.041 16.0612 19.041L17.21 19.0421C17.2377 19.0421 17.2515 19.0562 17.2515 19.0846V19.5058C17.2515 19.5321 17.2388 19.5448 17.2132 19.5441C16.375 19.5441 15.5304 19.5438 14.6795 19.5431C13.8285 19.5431 12.9839 19.5434 12.1457 19.5441C12.1202 19.5441 12.1074 19.531 12.1074 19.5048V19.0835C12.1074 19.0552 12.1213 19.041 12.1489 19.041H13.2977C13.3136 19.041 13.3289 19.0348 13.3402 19.0236C13.3516 19.0125 13.3581 18.9973 13.3583 18.9814C13.3605 18.824 13.3619 17.2805 13.3626 14.3511C13.3626 11.4216 13.3615 9.87818 13.3594 9.72075C13.3594 9.71279 13.3578 9.7049 13.3548 9.69755C13.3517 9.69019 13.3473 9.68351 13.3417 9.67788C13.336 9.67225 13.3293 9.66778 13.322 9.66473C13.3146 9.66169 13.3067 9.66012 13.2988 9.66012H12.15C12.1223 9.66012 12.1085 9.64594 12.1085 9.61757V9.19634C12.1085 9.1701 12.1213 9.15698 12.1468 9.15698C12.985 9.15769 13.8296 9.1584 14.6805 9.15911Z" fill="white"/>
  <path d="M52.9385 19.0307C53.6392 19.0385 54.3157 19.036 54.9681 19.0232C55.3042 19.0161 55.6797 18.9037 56.0946 18.686C56.4094 18.5208 56.686 18.2609 56.9243 17.9063C57.3036 17.3404 57.5533 16.7532 57.6731 16.1448C57.6823 16.098 57.711 16.0746 57.7593 16.0746H58.0965C58.1489 16.0746 58.1745 16.1005 58.173 16.1522L58.0741 19.5285C58.0741 19.5347 58.0715 19.5406 58.067 19.545C58.0624 19.5494 58.0561 19.5519 58.0497 19.5519H49.1177C49.1098 19.5519 49.1022 19.5487 49.0966 19.5431C49.091 19.5376 49.0879 19.53 49.0879 19.5221V19.0636C49.0879 19.0452 49.0971 19.036 49.1155 19.036H50.2622C50.3062 19.036 50.3282 19.014 50.3282 18.97V9.70296C50.3282 9.68914 50.3226 9.67588 50.3126 9.66611C50.3026 9.65633 50.2891 9.65084 50.275 9.65084H49.2794C49.2673 9.65084 49.2613 9.64481 49.2613 9.63276V9.18387C49.2613 9.16969 49.2687 9.1626 49.2836 9.1626H57.705C57.7214 9.1626 57.7371 9.16899 57.7486 9.18036C57.7602 9.19173 57.7667 9.20715 57.7667 9.22323V11.8517C57.7667 11.8822 57.7515 11.8974 57.721 11.8974H57.3306C57.2902 11.8974 57.2625 11.8786 57.2476 11.841C56.9789 11.1454 56.6686 10.6103 56.3169 10.2359C56.0963 10.0004 55.8155 9.8338 55.4744 9.73594C55.2482 9.67141 54.9273 9.64091 54.5118 9.64446C54.2806 9.6473 53.7558 9.64871 52.9375 9.64871C52.9262 9.64871 52.9154 9.6532 52.9074 9.66118C52.8994 9.66916 52.8949 9.67998 52.8949 9.69126V13.8599C52.8948 13.8711 52.8989 13.8818 52.9063 13.8902C52.9138 13.8986 52.9241 13.9041 52.9353 13.9057C53.6799 14.0046 54.365 13.8163 54.7373 13.1345C54.9287 12.7842 55.0369 12.4197 55.0617 12.041C55.0631 12.0162 55.0762 12.0041 55.1011 12.0048L55.5584 12.0187C55.567 12.0189 55.5751 12.0224 55.5811 12.0284C55.587 12.0343 55.5904 12.0423 55.5904 12.0506V16.398C55.5904 16.4363 55.5712 16.4554 55.5329 16.4554H55.1287C55.089 16.4554 55.0684 16.4355 55.067 16.3958C55.0372 15.6938 54.7553 14.8673 54.0629 14.5886C53.7267 14.4531 53.3622 14.4078 52.9694 14.4524C52.9282 14.4574 52.9077 14.4804 52.9077 14.5216V18.9998C52.9077 19.008 52.9109 19.0158 52.9167 19.0216C52.9225 19.0274 52.9303 19.0307 52.9385 19.0307Z" fill="white"/>
  <path d="M69.2581 18.9868C69.224 19.2045 69.2425 19.3782 69.3134 19.508C68.8652 19.708 68.3912 19.7945 67.8912 19.7675C66.5445 19.6952 65.7776 18.9946 65.5904 17.6656C65.5174 17.1466 65.4745 16.5647 65.4617 15.9201C65.4553 15.5925 65.3642 15.2684 65.1883 14.9479C65.0763 14.745 64.9309 14.5961 64.7522 14.5011C64.516 14.3763 64.3122 14.2976 64.1406 14.265C63.876 14.2153 63.5761 14.2029 63.2407 14.2277C63.2031 14.2306 63.1843 14.2508 63.1843 14.2884V18.9963C63.1843 19.0065 63.1883 19.0162 63.1955 19.0234C63.2027 19.0306 63.2124 19.0346 63.2226 19.0346H64.4873C64.4987 19.0346 64.5043 19.0403 64.5043 19.0517V19.5314C64.5043 19.547 64.4965 19.5548 64.4809 19.5548H59.4634C59.444 19.5548 59.4253 19.547 59.4115 19.533C59.3978 19.519 59.39 19.5001 59.39 19.4803V19.1229C59.39 19.0995 59.3993 19.0771 59.4159 19.0605C59.4324 19.0439 59.4549 19.0346 59.4783 19.0346H60.5229C60.5463 19.0346 60.5687 19.0253 60.5853 19.0088C60.6019 18.9922 60.6112 18.9698 60.6112 18.9464V9.7027C60.6112 9.6559 60.5878 9.63321 60.541 9.63462L59.5017 9.66654C59.4329 9.66866 59.3975 9.63533 59.3953 9.56655L59.3868 9.25594C59.3847 9.19567 59.4138 9.16553 59.4741 9.16553C63.5303 9.16695 65.5649 9.16801 65.5776 9.16872C66.1634 9.17581 66.7662 9.3031 67.3859 9.55059C67.7994 9.71582 68.1181 9.94026 68.3422 10.2239C68.5621 10.5012 68.6876 10.8451 68.7188 11.2557C68.7911 12.196 68.4156 12.9013 67.5923 13.3714C66.9598 13.7324 66.2215 13.9249 65.3777 13.949C65.3687 13.9494 65.3601 13.9518 65.3525 13.9561C65.3449 13.9603 65.3386 13.9663 65.334 13.9735C65.3227 13.9919 65.3191 14.01 65.3234 14.0278C65.3277 14.0441 65.3383 14.054 65.3553 14.0575C65.6985 14.1164 65.8971 14.1511 65.951 14.1618C66.5318 14.276 67.0626 14.5504 67.5434 14.9851C67.7483 15.1702 67.91 15.407 68.0284 15.6957C68.2277 16.1807 68.3468 16.5892 68.3858 16.921C68.3972 17.0168 68.3972 17.3089 68.3858 17.7975C68.3773 18.1691 68.4114 18.4578 68.4879 18.6634C68.5964 18.9534 68.8532 19.0612 69.2581 18.9868ZM65.968 11.9471C65.9687 11.7968 65.9719 11.5209 65.9776 11.1196C65.9811 10.9345 65.912 10.6061 65.7702 10.1346C65.6893 9.86545 65.4968 9.77291 65.2692 9.72823C64.6575 9.60803 64.0214 9.64845 63.2502 9.6442C63.2063 9.64349 63.1843 9.66512 63.1843 9.70908L63.1875 13.6459C63.1875 13.6842 63.2066 13.703 63.2449 13.7023C63.6867 13.6966 64.1395 13.6998 64.6033 13.7118C64.882 13.7189 65.1373 13.6601 65.3691 13.5353C65.5684 13.4275 65.7088 13.2608 65.7904 13.0353C65.9067 12.7112 65.9659 12.3485 65.968 11.9471Z" fill="white"/>
  <path d="M42.5841 13.9159C43.1386 13.9159 43.6925 13.9149 44.2456 13.9127C44.2557 13.9127 44.2655 13.9087 44.2727 13.9015C44.2799 13.8943 44.2839 13.8846 44.2839 13.8744V9.68342C44.2839 9.67467 44.2803 9.66628 44.2739 9.6601C44.2675 9.65392 44.2589 9.65044 44.2498 9.65044H43.1255C43.0886 9.65044 43.0702 9.63236 43.0702 9.59619V9.23985C43.0702 9.20865 43.0858 9.19305 43.117 9.19305H48.0813C48.0969 9.19305 48.1051 9.20085 48.1058 9.21645L48.1175 9.62278C48.1182 9.64193 48.1093 9.65151 48.0909 9.65151H46.9336C46.8946 9.65151 46.8751 9.67101 46.8751 9.71001V19.0005C46.8751 19.0095 46.8787 19.0182 46.8851 19.0245C46.8914 19.0309 46.9001 19.0345 46.9091 19.0345H48.0813C48.0998 19.0345 48.109 19.0437 48.109 19.0622V19.5217C48.109 19.5359 48.1019 19.543 48.0877 19.543H43.1372C43.0918 19.543 43.0691 19.5203 43.0691 19.4749V19.1015C43.0691 19.0561 43.0918 19.0334 43.1372 19.0334H44.2211C44.2375 19.0334 44.2532 19.0269 44.2648 19.0154C44.2763 19.0038 44.2828 18.9881 44.2828 18.9717V14.552C44.2828 14.5384 44.2775 14.5253 44.2679 14.5155C44.2584 14.5058 44.2454 14.5002 44.2318 14.4999C43.7042 14.4935 43.1549 14.4903 42.5841 14.4903C42.0132 14.4903 41.4643 14.4932 40.9374 14.4988C40.9238 14.4991 40.9108 14.5047 40.9013 14.5145C40.8917 14.5242 40.8864 14.5373 40.8864 14.551L40.8843 18.9707C40.8843 18.987 40.8908 19.0027 40.9023 19.0143C40.9139 19.0259 40.9296 19.0324 40.946 19.0324L42.0299 19.0334C42.0753 19.0334 42.098 19.0561 42.098 19.1015V19.4749C42.098 19.5203 42.0753 19.543 42.0299 19.543L37.0794 19.5408C37.0652 19.5408 37.0581 19.5337 37.0581 19.5196V19.06C37.0581 19.0416 37.0673 19.0324 37.0857 19.0324H38.258C38.267 19.0324 38.2756 19.0288 38.282 19.0224C38.2884 19.016 38.292 19.0074 38.292 18.9983L38.2952 9.70894C38.2952 9.66994 38.2757 9.65009 38.2367 9.64938H37.0794C37.0609 9.64938 37.0521 9.6398 37.0528 9.62066L37.0645 9.21432C37.0652 9.19872 37.0733 9.19092 37.0889 9.19092L42.0533 9.19305C42.0845 9.19305 42.1001 9.20865 42.1001 9.23985V9.59619C42.1001 9.63236 42.0816 9.65044 42.0448 9.65044L40.9204 9.64938C40.9114 9.64938 40.9027 9.65285 40.8964 9.65904C40.89 9.66522 40.8864 9.67361 40.8864 9.68235L40.8853 13.8734C40.8853 13.8835 40.8894 13.8933 40.8965 13.9005C40.9037 13.9076 40.9135 13.9117 40.9236 13.9117C41.4768 13.9145 42.0302 13.9159 42.5841 13.9159Z" fill="white"/>
  <path d="M133.56 32H132.898C132.15 31.9 131.505 31.6004 130.962 31.1011C130.952 31.0912 130.95 31.0802 130.958 31.0681L131.288 30.5969C131.302 30.5764 131.318 30.5746 131.337 30.5916C131.902 31.0986 132.471 31.367 133.043 31.3968C133.4 31.4146 133.678 31.3855 133.878 31.3096C134.201 31.1862 134.409 30.9745 134.502 30.6746C134.612 30.32 134.522 30.0041 134.23 29.7268C134.183 29.6821 134.03 29.6109 133.774 29.513C133.65 29.4655 133.489 29.419 133.293 29.3737C132.711 29.241 132.274 29.1049 131.983 28.9652C131.377 28.6752 131.102 28.1812 131.159 27.4834C131.207 26.8952 131.529 26.507 132.046 26.2378C132.229 26.1421 132.461 26.0786 132.743 26.0474C133.57 25.9545 134.323 26.18 135.001 26.7239C135.003 26.7256 135.005 26.7277 135.007 26.7301C135.008 26.7325 135.009 26.7352 135.01 26.738C135.01 26.7407 135.01 26.7435 135.009 26.7462C135.008 26.749 135.007 26.7515 135.005 26.7537L134.665 27.2409C134.651 27.2615 134.634 27.2636 134.615 27.2473C134.094 26.7913 133.483 26.5857 132.782 26.6303C132.519 26.6474 132.074 26.8548 131.92 27.1111C131.742 27.4061 131.749 27.7256 131.939 28.0695C132.087 28.3365 132.503 28.4631 132.837 28.5748C132.943 28.6103 133.096 28.6475 133.296 28.6865C133.807 28.7851 134.257 28.9655 134.646 29.2279C134.991 29.4605 135.172 29.8091 135.187 30.2736C135.207 30.8756 134.988 31.3348 134.531 31.6511C134.265 31.8347 133.941 31.951 133.56 32Z" fill="white"/>
  <path d="M38.2845 30.3883C37.3903 30.3876 36.891 30.3915 36.7868 30.4C36.7513 30.4035 36.7262 30.4216 36.7113 30.4542L36.0784 31.8775C36.0699 31.8973 36.0546 31.9069 36.0326 31.9062L35.4135 31.9051C35.4103 31.905 35.4071 31.9042 35.4043 31.9026C35.4015 31.901 35.3991 31.8988 35.3974 31.8961C35.3957 31.8935 35.3947 31.8905 35.3946 31.8874C35.3944 31.8843 35.3951 31.8812 35.3965 31.8785L37.9494 26.1387C37.965 26.104 37.9916 26.0859 38.0292 26.0845C38.1044 26.0824 38.1909 26.0813 38.2888 26.0813C38.3866 26.0813 38.4731 26.0827 38.5483 26.0856C38.5859 26.087 38.6125 26.1051 38.6281 26.1398L41.1693 31.8838C41.1707 31.8866 41.1714 31.8896 41.1713 31.8927C41.1711 31.8958 41.1701 31.8988 41.1684 31.9014C41.1667 31.9041 41.1644 31.9063 41.1615 31.9079C41.1587 31.9095 41.1555 31.9103 41.1523 31.9104L40.5332 31.9115C40.5112 31.9115 40.496 31.9016 40.4874 31.8817L39.8577 30.4563C39.8428 30.4244 39.8177 30.4067 39.7822 30.4032C39.678 30.3939 39.1787 30.389 38.2845 30.3883ZM38.2845 29.8022C38.9156 29.8029 39.3266 29.8025 39.5173 29.8011C39.5238 29.8011 39.5301 29.7994 39.5358 29.7964C39.5414 29.7933 39.5463 29.7889 39.5498 29.7836C39.5534 29.7782 39.5556 29.7721 39.5562 29.7657C39.5569 29.7593 39.5559 29.7528 39.5535 29.7468C39.228 29.0044 38.8149 28.0566 38.3143 26.9035C38.3086 26.8908 38.3001 26.8844 38.2888 26.8844C38.276 26.8844 38.2668 26.8908 38.2611 26.9035C37.7583 28.0552 37.3431 29.0019 37.0155 29.7437C37.0128 29.7497 37.0117 29.7562 37.0122 29.7628C37.0128 29.7693 37.0149 29.7757 37.0185 29.7812C37.0221 29.7867 37.027 29.7912 37.0328 29.7943C37.0386 29.7974 37.0451 29.799 37.0517 29.799C37.2424 29.8004 37.6534 29.8015 38.2845 29.8022Z" fill="white"/>
  <path d="M76.7399 26.0764C76.8385 26.0764 76.9254 26.0778 77.0005 26.0807C77.0381 26.0821 77.0647 26.1002 77.0803 26.1349L79.6279 31.9002C79.6293 31.903 79.63 31.906 79.6299 31.9091C79.6297 31.9122 79.6287 31.9152 79.627 31.9178C79.6253 31.9205 79.623 31.9227 79.6201 31.9243C79.6173 31.9259 79.6141 31.9267 79.6109 31.9268H78.9897C78.9677 31.9268 78.9524 31.9169 78.9439 31.897L78.3121 30.4674C78.2972 30.4348 78.272 30.4167 78.2366 30.4132C78.1323 30.4039 77.6313 30.399 76.7335 30.3983C75.8365 30.3969 75.3358 30.4004 75.2316 30.4089C75.1961 30.4125 75.1709 30.4305 75.156 30.4632L74.5199 31.8907C74.5114 31.9105 74.4962 31.9204 74.4742 31.9204L73.853 31.9183C73.8498 31.9182 73.8466 31.9174 73.8437 31.9158C73.8409 31.9142 73.8385 31.912 73.8368 31.9093C73.8351 31.9067 73.8342 31.9037 73.834 31.9006C73.8339 31.8975 73.8345 31.8945 73.836 31.8917L76.3995 26.1339C76.4151 26.0991 76.4417 26.081 76.4793 26.0796C76.5552 26.0775 76.642 26.0764 76.7399 26.0764ZM76.7282 29.8005C77.3586 29.8012 77.7692 29.8008 77.96 29.7994C77.9664 29.7994 77.9727 29.7977 77.9784 29.7947C77.9841 29.7916 77.9889 29.7872 77.9925 29.7819C77.996 29.7765 77.9982 29.7704 77.9989 29.764C77.9995 29.7576 77.9986 29.7511 77.9962 29.7452C77.6714 29.0034 77.259 28.0567 76.7591 26.905C76.7541 26.8923 76.7452 26.8859 76.7325 26.8859C76.7204 26.8859 76.7115 26.8923 76.7059 26.905C76.2031 28.0553 75.7882 29.0009 75.4613 29.742C75.4589 29.7478 75.458 29.7542 75.4586 29.7605C75.4592 29.7668 75.4613 29.7729 75.4647 29.7783C75.4682 29.7836 75.4728 29.788 75.4784 29.7911C75.4839 29.7943 75.4901 29.796 75.4964 29.7962C75.6879 29.7983 76.0985 29.7998 76.7282 29.8005Z" fill="white"/>
  <path d="M9.55854 26.107C10.4116 26.1077 11.1364 26.1074 11.7328 26.106C11.7412 26.1058 11.7496 26.1074 11.7575 26.1106C11.7654 26.1138 11.7725 26.1185 11.7786 26.1246C11.7846 26.1306 11.7894 26.1378 11.7927 26.1458C11.796 26.1537 11.7976 26.1622 11.7976 26.1709V26.6634C11.7976 26.6794 11.7913 26.6949 11.7799 26.7062C11.7685 26.7176 11.7531 26.724 11.737 26.724H9.93084C9.91786 26.724 9.90541 26.7292 9.89624 26.7386C9.88706 26.748 9.8819 26.7607 9.8819 26.774V31.8415C9.8819 31.8812 9.86205 31.9028 9.82234 31.9064C9.76064 31.9121 9.67235 31.9149 9.55747 31.9149C9.44188 31.9142 9.35324 31.9113 9.29154 31.9064C9.25254 31.9028 9.23304 31.8812 9.23304 31.8415L9.2341 26.774C9.2341 26.7674 9.23284 26.7609 9.23038 26.7548C9.22792 26.7488 9.22432 26.7433 9.21977 26.7386C9.21523 26.734 9.20983 26.7303 9.2039 26.7278C9.19796 26.7253 9.1916 26.724 9.18517 26.724L7.37899 26.7229C7.36291 26.7229 7.34749 26.7165 7.33612 26.7052C7.32475 26.6938 7.31836 26.6784 7.31836 26.6623L7.31942 26.1698C7.3197 26.1528 7.32654 26.1365 7.33848 26.1246C7.35042 26.1127 7.3665 26.106 7.38325 26.106C7.98034 26.1074 8.70544 26.1077 9.55854 26.107Z" fill="white"/>
  <path d="M20.9186 29.553C20.8818 29.5636 20.8747 29.5846 20.8974 29.6158L22.5972 31.9219C22.6014 31.9283 22.5996 31.9315 22.5918 31.9315L21.8409 31.9304C21.8182 31.9297 21.8001 31.9201 21.7866 31.9017L20.1751 29.7136C20.1659 29.7014 20.1539 29.6915 20.14 29.6847C20.1262 29.6779 20.1109 29.6743 20.0953 29.6743L18.6093 29.67C18.5618 29.67 18.538 29.6934 18.538 29.7402L18.5327 31.8591C18.5324 31.8764 18.5253 31.8929 18.5127 31.9051C18.5002 31.9172 18.4833 31.924 18.4657 31.924L17.9349 31.923C17.8924 31.923 17.8711 31.902 17.8711 31.8602L17.886 26.1704C17.886 26.1314 17.9055 26.1119 17.9445 26.1119C19.5174 26.1055 20.4162 26.1073 20.641 26.1172C20.7743 26.1229 20.9704 26.1686 21.2292 26.2544C22.093 26.5395 22.511 27.2735 22.3642 28.1872C22.2756 28.7389 21.9593 29.1403 21.4154 29.3913C21.3402 29.4254 21.1746 29.4793 20.9186 29.553ZM18.5231 26.7512L18.5359 29.0382C18.5359 29.0447 18.5385 29.0509 18.5431 29.0555C18.5477 29.0601 18.5539 29.0626 18.5604 29.0626L20.4176 29.0531C20.5924 29.0521 20.7652 29.0225 20.9264 28.9659C21.0875 28.9094 21.2337 28.827 21.3567 28.7235C21.4797 28.62 21.577 28.4973 21.6431 28.3626C21.7092 28.2279 21.7428 28.0837 21.7419 27.9383V27.817C21.7411 27.6716 21.7059 27.5278 21.6382 27.3938C21.5706 27.2599 21.4718 27.1383 21.3477 27.0362C21.2235 26.9341 21.0764 26.8533 20.9146 26.7986C20.7528 26.7438 20.5796 26.7162 20.4049 26.7172L18.5476 26.7267C18.5444 26.7267 18.5412 26.7274 18.5383 26.7286C18.5353 26.7298 18.5326 26.7316 18.5303 26.7339C18.528 26.7362 18.5262 26.7389 18.525 26.7418C18.5238 26.7448 18.5231 26.748 18.5231 26.7512Z" fill="white"/>
  <path d="M29.3 26.1074H28.749C28.7226 26.1074 28.7012 26.1289 28.7012 26.1553V31.8674C28.7012 31.8939 28.7226 31.9153 28.749 31.9153H29.3C29.3265 31.9153 29.3479 31.8939 29.3479 31.8674V26.1553C29.3479 26.1289 29.3265 26.1074 29.3 26.1074Z" fill="white"/>
  <path d="M51.0498 31.3535V31.8811C51.0498 31.8902 51.0463 31.8988 51.0399 31.9052C51.0335 31.9116 51.0248 31.9152 51.0158 31.9152H47.2215C47.2125 31.9152 47.2039 31.9116 47.1975 31.9052C47.1911 31.8988 47.1875 31.8902 47.1875 31.8811V26.1339C47.1875 26.1293 47.1884 26.1248 47.1902 26.1206C47.192 26.1164 47.1946 26.1126 47.1978 26.1095C47.2011 26.1063 47.205 26.1038 47.2092 26.1021C47.2135 26.1005 47.218 26.0997 47.2226 26.0999L47.7991 26.1169C47.808 26.1172 47.8164 26.1209 47.8225 26.1272C47.8287 26.1336 47.8321 26.1421 47.8321 26.1509V31.2855C47.8321 31.2899 47.833 31.2944 47.8347 31.2985C47.8364 31.3026 47.8389 31.3064 47.8421 31.3095C47.8452 31.3127 47.849 31.3152 47.8531 31.3169C47.8573 31.3186 47.8617 31.3195 47.8661 31.3195H51.0158C51.0248 31.3195 51.0335 31.3231 51.0399 31.3295C51.0463 31.3359 51.0498 31.3445 51.0498 31.3535Z" fill="white"/>
  <path d="M65.0647 31.2557C65.0647 31.264 65.0663 31.2721 65.0695 31.2797C65.0726 31.2873 65.0773 31.2943 65.0831 31.3001C65.0889 31.3059 65.0958 31.3105 65.1034 31.3137C65.1111 31.3169 65.1192 31.3185 65.1275 31.3185H68.2643C68.2743 31.3185 68.2792 31.3234 68.2792 31.3334L68.2803 31.895C68.2803 31.9071 68.2746 31.9131 68.2633 31.9131L64.4637 31.9152C64.4332 31.9152 64.418 31.8996 64.418 31.8684L64.4201 26.1286C64.4201 26.1224 64.4228 26.1165 64.4276 26.1121C64.4324 26.1077 64.4388 26.1052 64.4456 26.1052L65.0317 26.1095C65.053 26.1102 65.0636 26.1201 65.0636 26.1393L65.0647 31.2557Z" fill="white"/>
  <path d="M89.3421 26.1061C89.4279 26.1061 89.4999 26.1043 89.5581 26.1008C89.5949 26.0986 89.619 26.1153 89.6304 26.1508L91.1483 30.8747C91.1604 30.9116 91.1724 30.9116 91.1845 30.8747L92.78 26.138C92.7831 26.129 92.7889 26.1212 92.7965 26.1156C92.8042 26.1101 92.8133 26.1071 92.8226 26.1071H93.463C93.4659 26.1071 93.4688 26.1078 93.4714 26.1092C93.474 26.1105 93.4762 26.1125 93.4779 26.1149C93.4796 26.1173 93.4806 26.1201 93.481 26.123C93.4814 26.1259 93.481 26.1289 93.48 26.1316L91.4823 31.8725C91.4721 31.902 91.4527 31.9275 91.4269 31.9453C91.4011 31.9631 91.3702 31.9723 91.3387 31.9714L90.9505 31.9597C90.9186 31.959 90.8976 31.9434 90.8877 31.9129C90.3622 30.328 89.8538 28.8005 89.3623 27.3304C89.3609 27.3255 89.3581 27.3219 89.3538 27.3198C89.3503 27.3169 89.3464 27.3155 89.3421 27.3155C89.3372 27.3155 89.3329 27.3169 89.3294 27.3198C89.3251 27.3219 89.3223 27.3255 89.3209 27.3304C88.8287 28.8005 88.3192 30.3276 87.7923 31.9118C87.7824 31.9423 87.7615 31.9579 87.7295 31.9586L87.3413 31.9703C87.31 31.971 87.2794 31.9617 87.2537 31.944C87.2281 31.9262 87.2089 31.9008 87.1987 31.8714L85.2043 26.1295C85.2033 26.1267 85.2029 26.1238 85.2033 26.1209C85.2036 26.118 85.2047 26.1152 85.2064 26.1128C85.208 26.1104 85.2103 26.1084 85.2129 26.1071C85.2155 26.1057 85.2184 26.105 85.2213 26.105H85.8617C85.871 26.105 85.8801 26.108 85.8877 26.1135C85.8953 26.119 85.9011 26.1269 85.9042 26.1359L87.4966 30.8736C87.5086 30.9105 87.5207 30.9105 87.5328 30.8736L89.0539 26.1508C89.0652 26.1153 89.0893 26.0986 89.1262 26.1008C89.1843 26.1043 89.2563 26.1061 89.3421 26.1061Z" fill="white"/>
  <path d="M101.622 28.9581C101.642 28.9581 101.656 28.9531 101.663 28.9432C102.559 27.5895 103.179 26.6516 103.525 26.1297C103.535 26.1134 103.55 26.1052 103.569 26.1052H104.301C104.303 26.1053 104.304 26.1058 104.306 26.1066C104.307 26.1075 104.308 26.1087 104.309 26.1102C104.309 26.1116 104.31 26.1132 104.309 26.1148C104.309 26.1163 104.309 26.1178 104.308 26.1191L101.976 29.5793C101.957 29.6077 101.946 29.6411 101.946 29.675V31.8599C101.946 31.8735 101.941 31.8866 101.932 31.8964C101.922 31.9061 101.909 31.9118 101.896 31.912C101.824 31.9134 101.734 31.9145 101.625 31.9152C101.515 31.9152 101.424 31.9142 101.353 31.912C101.339 31.9118 101.327 31.9063 101.317 31.8968C101.308 31.8873 101.303 31.8744 101.303 31.861L101.299 29.6761C101.299 29.6422 101.289 29.6088 101.27 29.5804L98.9316 26.1233C98.9306 26.1221 98.9299 26.1206 98.9298 26.119C98.9296 26.1174 98.9298 26.1159 98.9305 26.1144C98.9311 26.113 98.9322 26.1118 98.9335 26.1109C98.9348 26.11 98.9364 26.1095 98.9379 26.1095L99.6698 26.1084C99.6889 26.1084 99.7038 26.1166 99.7144 26.1329C100.061 26.6541 100.683 27.5909 101.581 28.9432C101.588 28.9531 101.601 28.9581 101.622 28.9581Z" fill="white"/>
  <path d="M113.967 29.0119C113.968 29.131 113.965 29.214 113.959 29.2608C113.954 29.297 113.934 29.3151 113.898 29.3151H110.919C110.88 29.3151 110.861 29.3339 110.861 29.3714V31.2585C110.861 31.301 110.882 31.3223 110.925 31.3223H114.315C114.326 31.3223 114.337 31.3266 114.344 31.3341C114.352 31.3417 114.357 31.352 114.357 31.3627V31.8903C114.357 31.8953 114.356 31.9003 114.354 31.905C114.352 31.9096 114.349 31.9138 114.345 31.9174C114.342 31.921 114.338 31.9238 114.333 31.9257C114.328 31.9276 114.323 31.9286 114.318 31.9286H110.281C110.244 31.9286 110.224 31.9095 110.223 31.8712C110.217 31.645 110.214 30.6929 110.213 29.0151C110.212 27.3373 110.214 26.3853 110.219 26.159C110.22 26.1207 110.24 26.1016 110.277 26.1016L114.314 26.0952C114.324 26.0952 114.334 26.0992 114.341 26.1064C114.348 26.1136 114.352 26.1234 114.352 26.1335L114.353 26.6611C114.353 26.6718 114.349 26.6821 114.341 26.6897C114.333 26.6973 114.323 26.7015 114.312 26.7015L110.922 26.7068C110.879 26.7068 110.858 26.7281 110.858 26.7707L110.86 28.6577C110.861 28.6953 110.88 28.7141 110.919 28.7141L113.898 28.7098C113.934 28.7098 113.954 28.7279 113.959 28.7641C113.964 28.8109 113.967 28.8935 113.967 29.0119Z" fill="white"/>
  <path d="M123.552 29.6085L125.258 31.9114C125.263 31.9178 125.261 31.921 125.253 31.921H124.502C124.479 31.921 124.461 31.9118 124.448 31.8933L122.83 29.7085C122.821 29.6963 122.809 29.6864 122.795 29.6795C122.781 29.6727 122.766 29.6691 122.75 29.6691H121.264C121.217 29.6691 121.193 29.6925 121.193 29.7393V31.8582C121.193 31.8757 121.186 31.8925 121.173 31.9049C121.161 31.9172 121.144 31.9242 121.126 31.9242H120.595C120.553 31.9242 120.531 31.9033 120.531 31.8614V26.1706C120.531 26.1316 120.551 26.1121 120.59 26.1121C122.163 26.1014 123.061 26.1007 123.286 26.1099C123.42 26.1156 123.617 26.161 123.876 26.2461C124.74 26.529 125.161 27.2619 125.016 28.1767C124.929 28.7284 124.613 29.1305 124.069 29.383C123.995 29.417 123.829 29.4713 123.573 29.5457C123.537 29.5564 123.53 29.5773 123.552 29.6085ZM121.194 26.7556L121.202 29.0256C121.202 29.034 121.206 29.0421 121.212 29.0481C121.218 29.0541 121.226 29.0575 121.234 29.0575L123.081 29.0511C123.435 29.0498 123.773 28.9292 124.023 28.7157C124.272 28.5023 124.412 28.2135 124.411 27.9129V27.847C124.41 27.698 124.375 27.5506 124.308 27.4132C124.24 27.2758 124.141 27.1511 124.017 27.0462C123.893 26.9413 123.746 26.8582 123.583 26.8018C123.421 26.7454 123.248 26.7167 123.072 26.7173L121.226 26.7237C121.222 26.7237 121.218 26.7245 121.214 26.7261C121.21 26.7277 121.206 26.7301 121.203 26.733C121.2 26.736 121.198 26.7395 121.196 26.7434C121.195 26.7473 121.194 26.7514 121.194 26.7556Z" fill="white"/>
</svg>