<svg xmlns="http://www.w3.org/2000/svg" width="100" height="50" viewBox="0 0 100 50" fill="none">
  <path d="M21.3515 0L21.8661 9.32223C21.8681 9.35283 21.8534 9.36813 21.8222 9.36813H9.42769C9.39253 9.36813 9.37496 9.3857 9.37496 9.42086V12.4472C9.37496 12.4778 9.38993 12.4931 9.41988 12.4931H19.7548C19.7644 12.4931 19.7736 12.4969 19.7803 12.5037C19.7871 12.5105 19.7909 12.5197 19.7909 12.5292V21.8271C19.7909 21.8379 19.7867 21.8484 19.7792 21.8561C19.7717 21.8638 19.7615 21.8681 19.7509 21.8681H9.4023C9.39505 21.8681 9.38809 21.871 9.38296 21.8761C9.37784 21.8812 9.37496 21.8882 9.37496 21.8954V32.2499C9.37496 32.2589 9.37125 32.2676 9.36466 32.274C9.35807 32.2804 9.34912 32.284 9.3398 32.284L0 32.285V0.083984C0.0234374 0.0429686 0.0768225 0.0149739 0.160155 0H21.3515Z" fill="white"/>
  <path d="M39.7622 0C42.8455 0.113932 45.7052 0.902014 48.3412 2.36425C52.5775 4.71482 55.7865 8.84371 56.7328 13.6474C57.5596 17.8492 56.7956 21.7147 54.4408 25.244C53.2559 27.0194 51.7361 28.5425 49.8813 29.8133C47.7416 31.2791 45.2436 32.325 42.6713 32.7821C38.4819 33.5275 34.4878 32.9969 30.6889 31.1903C30.1597 30.939 29.5926 30.6242 28.9878 30.2459C25.5249 28.0819 22.8755 24.8251 21.729 20.8944C20.4839 16.6259 21.3257 11.8056 23.7505 8.07516C25.1509 5.92087 27.0239 4.09178 29.2251 2.75096C32.0252 1.04524 35.0988 0.128255 38.4458 0H39.7622ZM41.6735 9.8375C41.6746 9.16773 41.4097 8.52493 40.9369 8.05051C40.4642 7.57608 39.8223 7.3089 39.1525 7.30773L39.006 7.30746C38.6744 7.30688 38.3459 7.37163 38.0393 7.49801C37.7327 7.62439 37.4539 7.80992 37.219 8.04401C36.9841 8.27811 36.7976 8.55618 36.6702 8.86235C36.5427 9.16852 36.4768 9.4968 36.4762 9.82844L36.4524 23.4885C36.4512 24.1583 36.7162 24.8011 37.189 25.2755C37.6617 25.7499 38.3036 26.0171 38.9734 26.0183L39.1199 26.0185C39.4515 26.0191 39.78 25.9544 40.0866 25.828C40.3932 25.7016 40.6719 25.5161 40.9069 25.282C41.1418 25.0479 41.3283 24.7698 41.4557 24.4637C41.5832 24.1575 41.6491 23.8292 41.6496 23.4976L41.6735 9.8375Z" fill="white"/>
  <path d="M63.5434 0L67.6791 8.27242C67.6816 8.27759 67.6855 8.28196 67.6903 8.28502C67.6951 8.28808 67.7008 8.2897 67.7065 8.2897C67.7122 8.2897 67.7178 8.28808 67.7226 8.28502C67.7275 8.28196 67.7314 8.27759 67.7338 8.27242L71.8715 0H83.3295L72.9398 16.6259C72.9328 16.6367 72.9291 16.6494 72.9291 16.6624C72.9291 16.6753 72.9328 16.6881 72.9398 16.6991L83.3158 33.3104C83.3175 33.3134 83.3185 33.3168 83.3186 33.3202C83.3187 33.3237 83.3179 33.3271 83.3163 33.33C83.3147 33.333 83.3124 33.3355 83.3096 33.3372C83.3067 33.3389 83.3035 33.3397 83.3002 33.3397H72.9418C72.9341 33.3397 72.9265 33.3377 72.9196 33.334C72.9128 33.3302 72.907 33.3248 72.9027 33.3182L67.7299 25.037C67.7278 25.0336 67.7248 25.0309 67.7213 25.0291C67.7177 25.0272 67.7138 25.0264 67.7098 25.0266C67.7058 25.0268 67.702 25.028 67.6987 25.0302C67.6953 25.0324 67.6926 25.0354 67.6908 25.0389L63.5561 33.3065C63.545 33.3286 63.5275 33.3397 63.5034 33.3397H52.1255C52.121 33.3398 52.1166 33.3386 52.1126 33.3365C52.1087 33.3343 52.1054 33.3311 52.1031 33.3272C52.1009 33.3233 52.0996 33.3189 52.0996 33.3144C52.0996 33.3099 52.1008 33.3055 52.103 33.3016L61.4331 16.7069C61.4506 16.675 61.4506 16.6435 61.4331 16.6122L52.0864 0H63.5434Z" fill="white"/>
  <path d="M95.8369 0L99.999 36.3455V36.45L95.538 36.449C95.5198 36.449 95.5081 36.4399 95.5029 36.4217L85.417 0H95.8369Z" fill="white"/>
  <path d="M94.1831 36.4533H87.5015C87.4961 36.4532 87.4909 36.4517 87.4863 36.4489C87.4816 36.4462 87.4778 36.4423 87.4751 36.4377L76.0601 16.6663C76.0572 16.6614 76.0557 16.6558 76.0557 16.6502C76.0557 16.6445 76.0572 16.6389 76.0601 16.634L83.2984 5.25909C83.3015 5.25418 83.3059 5.25024 83.3112 5.24771C83.3164 5.24518 83.3222 5.24416 83.328 5.24477C83.3338 5.24538 83.3393 5.24759 83.3439 5.25116C83.3485 5.25472 83.352 5.2595 83.354 5.26495L94.2124 36.4113C94.2141 36.416 94.2147 36.4211 94.214 36.4261C94.2134 36.431 94.2116 36.4358 94.2087 36.4399C94.2058 36.444 94.202 36.4474 94.1975 36.4497C94.1931 36.4521 94.1881 36.4533 94.1831 36.4533Z" fill="white"/>
  <path d="M10.5 49.9993H0V38.5364C3.14647 38.5338 6.29326 38.5338 9.44039 38.5364C10.2587 38.5371 10.8281 38.5885 11.1484 38.6907C11.9023 38.931 12.4589 39.4534 12.8183 40.2581C13.0742 40.8304 13.1581 41.485 13.0703 42.222C12.9778 42.9934 12.6406 43.6341 12.0585 44.1438C12.026 44.1725 12.0273 44.1998 12.0624 44.2259C12.9329 44.8639 13.346 45.7831 13.3017 46.9837C13.2796 47.5937 13.1197 48.1383 12.8222 48.6174C12.2942 49.469 11.5201 49.9296 10.5 49.9993ZM2.48143 41.2522V42.9261C2.48143 42.9357 2.48524 42.9448 2.49202 42.9516C2.49879 42.9584 2.50798 42.9622 2.51757 42.9622H10.0253C10.1971 42.9622 10.3617 42.8915 10.4832 42.7657C10.6046 42.6399 10.6728 42.4692 10.6728 42.2913V41.887C10.6728 41.7091 10.6046 41.5384 10.4832 41.4126C10.3617 41.2868 10.1971 41.2161 10.0253 41.2161H2.51757C2.50798 41.2161 2.49879 41.2199 2.49202 41.2267C2.48524 41.2335 2.48143 41.2427 2.48143 41.2522ZM2.48143 45.6477V47.2884C2.48143 47.2982 2.48534 47.3076 2.4923 47.3146C2.49926 47.3216 2.5087 47.3255 2.51854 47.3255H10.2177C10.3024 47.3255 10.3862 47.3082 10.4644 47.2747C10.5426 47.2412 10.6136 47.192 10.6735 47.1301C10.7333 47.0682 10.7808 46.9946 10.8132 46.9137C10.8456 46.8328 10.8623 46.7461 10.8623 46.6585V46.2776C10.8623 46.19 10.8456 46.1033 10.8132 46.0224C10.7808 45.9414 10.7333 45.8679 10.6735 45.806C10.6136 45.744 10.5426 45.6949 10.4644 45.6614C10.3862 45.6279 10.3024 45.6106 10.2177 45.6106H2.51854C2.5087 45.6106 2.49926 45.6145 2.4923 45.6215C2.48534 45.6285 2.48143 45.6379 2.48143 45.6477Z" fill="white"/>
  <path d="M25.0003 50.0001H17.3861C15.6068 49.8058 14.6478 48.1242 14.6439 46.4386C14.6387 43.8175 14.6374 41.1955 14.64 38.5725C14.64 38.5529 14.6497 38.5432 14.6693 38.5432H17.0941C17.1044 38.5432 17.1144 38.5473 17.1217 38.5546C17.129 38.5619 17.1331 38.5719 17.1331 38.5822C17.1286 42.2261 17.1299 44.9175 17.137 46.6564C17.1377 46.8159 17.1898 46.9783 17.2933 47.1437C17.3812 47.2843 17.557 47.3244 17.7249 47.3244C20.1885 47.3257 22.4596 47.326 24.5384 47.3253C24.9817 47.3247 25.2044 47.1102 25.2063 46.6818C25.2193 43.3999 25.2193 40.6987 25.2063 38.5783C25.2063 38.5682 25.2103 38.5585 25.2175 38.5514C25.2246 38.5442 25.2343 38.5402 25.2444 38.5402H27.6516C27.6848 38.5402 27.7014 38.5568 27.7014 38.59C27.7053 41.1825 27.706 43.8218 27.7034 46.508C27.7021 47.34 27.4661 48.0945 26.9954 48.7716C26.5084 49.4715 25.8434 49.881 25.0003 50.0001Z" fill="white"/>
  <path d="M45.8057 49.9994H43.3184L43.3193 38.5893C43.3193 38.5535 43.3372 38.5356 43.373 38.5356H45.7539C45.7864 38.5356 45.8027 38.5518 45.8027 38.5844L45.8057 49.9994Z" fill="white"/>
  <path d="M58.7402 49.9999H56.2666L49.9267 42.3828C49.9059 42.3574 49.8955 42.3613 49.8955 42.3945L49.8799 49.9999H47.3975L47.3955 38.5635C47.3955 38.5552 47.3988 38.5472 47.4047 38.5414C47.4105 38.5355 47.4185 38.5322 47.4268 38.5322H49.8271C49.8564 38.5322 49.8805 38.5436 49.8994 38.5664L56.2197 46.1699C56.2228 46.174 56.2272 46.1771 56.2322 46.1786C56.2372 46.1801 56.2425 46.18 56.2474 46.1783C56.2523 46.1765 56.2566 46.1732 56.2595 46.1689C56.2624 46.1646 56.2638 46.1595 56.2636 46.1542V38.583C56.2636 38.5491 56.2806 38.5322 56.3144 38.5322H58.6962C58.7082 38.5322 58.7196 38.5369 58.728 38.5454C58.7364 38.5538 58.7412 38.5652 58.7412 38.5771L58.7402 49.9999Z" fill="white"/>
  <path d="M71.6655 49.9993H60.3384V38.5706C60.3384 38.561 60.3421 38.5518 60.3487 38.5451C60.3553 38.5383 60.3642 38.5345 60.3735 38.5345H71.6538C71.6639 38.5345 71.6735 38.5386 71.6807 38.5459C71.6878 38.5533 71.6918 38.5632 71.6918 38.5735V41.1829C71.6918 41.192 71.6882 41.2007 71.6818 41.2071C71.6754 41.2135 71.6667 41.2171 71.6577 41.2171H62.8393C62.8347 41.2171 62.8302 41.2189 62.8269 41.2222C62.8236 41.2255 62.8218 41.23 62.8218 41.2347V42.8899C62.8218 42.9003 62.826 42.9102 62.8335 42.9176C62.841 42.9249 62.8512 42.929 62.8618 42.929H71.0883C71.094 42.929 71.0995 42.9314 71.1035 42.9356C71.1076 42.9398 71.1098 42.9455 71.1098 42.9515V45.5725C71.1098 45.5811 71.1065 45.5893 71.1007 45.5953C71.0948 45.6014 71.0868 45.6048 71.0786 45.6048H62.8677C62.8371 45.6048 62.8218 45.6201 62.8218 45.6507V47.2903C62.8218 47.2952 62.8237 47.2999 62.8272 47.3034C62.8307 47.3069 62.8354 47.3089 62.8403 47.3089H71.6293C71.6534 47.3089 71.6655 47.3206 71.6655 47.344V49.9993Z" fill="white"/>
  <path d="M39.3795 49.9997H29.8249L29.8288 47.3854C29.8294 47.3522 29.846 47.3356 29.8786 47.3356C32.5055 47.333 35.5094 47.3324 38.8902 47.3337C39.0641 47.3337 39.1914 47.3054 39.2721 47.2487C39.5582 47.0485 39.5406 46.4206 39.4879 46.1003C39.4352 45.78 39.2532 45.6198 38.942 45.6198C37.6002 45.6185 35.65 45.6188 33.0914 45.6208C32.264 45.6214 31.7174 45.5775 31.4518 45.489C30.2047 45.07 29.4245 43.7829 29.3249 42.4968C29.2233 41.1862 29.5973 40.1107 30.4469 39.2702C30.706 39.0137 31.0368 38.8178 31.4391 38.6823C31.6891 38.5984 32.0573 38.556 32.5436 38.5554C33.1764 38.5547 36.149 38.5551 41.4615 38.5564C41.4895 38.5564 41.5035 38.5704 41.5035 38.5984V41.1872C41.5035 41.1916 41.5026 41.1959 41.5009 41.1999C41.4992 41.204 41.4967 41.2076 41.4935 41.2107C41.4903 41.2138 41.4866 41.2162 41.4824 41.2179C41.4783 41.2196 41.4738 41.2204 41.4693 41.2204C38.483 41.2211 35.4944 41.2214 32.5036 41.2214C32.2939 41.2214 32.1546 41.2426 32.0856 41.2849C31.6969 41.5251 31.7184 42.5544 32.026 42.8396C32.095 42.9034 32.2344 42.9353 32.444 42.9353C35.4863 42.9359 37.4996 42.9366 38.484 42.9372C39.1005 42.9372 39.5312 42.9724 39.776 43.0427C40.2011 43.1638 40.5869 43.3916 40.9332 43.7263C41.3863 44.1644 41.6917 44.6875 41.8492 45.2956C42.2158 46.7142 41.9824 47.9518 41.149 49.0085C40.7285 49.5417 40.1386 49.8721 39.3795 49.9997Z" fill="white"/>
  <path d="M83.3547 49.9994H73.8001L73.7991 47.3705C73.7991 47.3458 73.8118 47.3334 73.8372 47.3334C78.4387 47.334 81.5048 47.3337 83.0354 47.3324C83.0979 47.3324 83.1754 47.2982 83.2678 47.2299C83.5422 47.0268 83.5208 46.3695 83.4602 46.059C83.4036 45.768 83.2281 45.6225 82.9338 45.6225C79.7275 45.6179 77.7428 45.6169 76.9798 45.6195C76.2135 45.6221 75.6946 45.5779 75.4231 45.4867C74.8313 45.2875 74.3349 44.893 73.9339 44.3031C73.2181 43.2494 73.1233 41.8256 73.5384 40.6518C73.8675 39.726 74.5628 38.9233 75.5188 38.6538C75.7461 38.5893 76.0706 38.5571 76.4925 38.5571C79.4807 38.5545 82.47 38.5541 85.4602 38.5561C85.4752 38.5561 85.4827 38.5636 85.4827 38.5786V41.1821C85.4827 41.1872 85.4816 41.1923 85.4796 41.197C85.4776 41.2017 85.4747 41.2061 85.4709 41.2097C85.4672 41.2133 85.4628 41.2162 85.4579 41.2181C85.4531 41.2201 85.4479 41.2211 85.4426 41.2211C81.4016 41.2211 78.3456 41.2211 76.2747 41.2211C76.0579 41.2211 75.8909 41.4018 75.8401 41.6147C75.7405 42.0281 75.7568 42.3871 75.889 42.6918C75.9681 42.8744 76.1526 42.935 76.3538 42.936C77.4723 42.9379 79.666 42.9369 82.9348 42.933C83.7721 42.9324 84.4765 43.2436 85.0481 43.8666C85.4374 44.2911 85.6998 44.783 85.8352 45.3422C86.1731 46.738 85.9426 47.9519 85.1438 48.9838C84.7206 49.5313 84.1243 49.8698 83.3547 49.9994Z" fill="white"/>
  <path d="M99.9985 46.3624V46.5646C99.9802 47.5249 99.6782 48.3514 99.0922 49.0441C98.6534 49.5629 98.0776 49.8813 97.3647 49.9991H87.8032L87.8091 47.3849C87.8091 47.3517 87.8257 47.3351 87.8589 47.3351C90.8413 47.3318 93.8217 47.3312 96.8002 47.3331C97.0144 47.3331 97.1616 47.3055 97.2416 47.2501C97.5444 47.0392 97.5258 46.3927 97.4731 46.09C97.4197 45.7866 97.2446 45.6326 96.9477 45.6281C96.3754 45.6196 94.3667 45.616 90.9214 45.6173C90.1857 45.618 89.6867 45.5734 89.4243 45.4835C88.2641 45.0861 87.5054 43.9289 87.3403 42.7238C87.2446 42.0233 87.3035 41.3546 87.5171 40.7179C87.8296 39.7834 88.5171 38.9572 89.477 38.6642C89.7088 38.5933 90.0542 38.5575 90.5132 38.5568C93.8712 38.5529 96.8448 38.5529 99.434 38.5568C99.4731 38.5568 99.4926 38.5763 99.4926 38.6154V41.1877C99.4926 41.192 99.4918 41.1963 99.4901 41.2004C99.4884 41.2044 99.486 41.2081 99.4829 41.2111C99.4798 41.2142 99.4761 41.2167 99.4721 41.2183C99.4681 41.22 99.4638 41.2209 99.4594 41.2209C96.4588 41.2209 93.4659 41.2209 90.4809 41.2209C90.2746 41.2209 90.1385 41.242 90.0727 41.2843C89.688 41.5295 89.6997 42.5744 90.0317 42.8527C90.0988 42.9087 90.2449 42.9363 90.4702 42.9357C93.0223 42.9331 95.2563 42.9357 97.1723 42.9435C97.5375 42.9448 97.8982 43.0412 98.2543 43.2326C98.5616 43.3979 98.8419 43.6268 99.0952 43.9191C99.6778 44.591 99.9789 45.4054 99.9985 46.3624Z" fill="white"/>
  <path d="M0 36.4528V34.3678H84.3502C84.3572 34.3679 84.3642 34.3699 84.3702 34.3737C84.3762 34.3775 84.3811 34.3829 84.3844 34.3893L85.3922 36.4049C85.4085 36.4368 85.3987 36.4528 85.3629 36.4528H0Z" fill="#C20017"/>
</svg>