<svg xmlns="http://www.w3.org/2000/svg" width="304" height="324" viewBox="0 0 304 324" fill="none">
  <path d="M151.593 165.375C224.027 165.375 298.354 212.47 303.168 307.083C303.354 310.73 302.084 314.302 299.637 317.013C297.191 319.724 293.769 321.354 290.122 321.544C251.902 323.492 74.8958 324.686 13.0823 321.544C9.43223 321.359 6.00526 319.731 3.55521 317.019C1.10515 314.307 -0.167321 310.733 0.0176851 307.083C4.83193 212.488 79.1588 165.375 151.593 165.375ZM151.593 0C133.318 0 115.791 7.25974 102.869 20.1822C89.9466 33.1046 82.6868 50.6312 82.6868 68.9062C82.6868 87.1813 89.9466 104.708 102.869 117.63C115.791 130.553 133.318 137.812 151.593 137.812C169.868 137.812 187.395 130.553 200.317 117.63C213.24 104.708 220.499 87.1813 220.499 68.9062C220.499 50.6312 213.24 33.1046 200.317 20.1822C187.395 7.25974 169.868 0 151.593 0Z" fill="white" fill-opacity="0.2"/>
</svg>